<svg x="0" y="0" width="300" height="300" version="1.1" xmlns="http://www.w3.org/2000/svg" xmlns:xlink="http://www.w3.org/1999/xlink"><g transform="translate(30,160.43328) scale(0.69324,0.69324)" data-paper-data="{&quot;description&quot;:&quot;Logo for Ejgru.Gu\n=================\n\nThis logo was generated by MarkMaker and is composed of elements designed by others.\n\nThe font is Bilbo Swash Caps designed by TypeSETit and released under the OFL license via Google Fonts: https://www.google.com/fonts/specimen/Bilbo Swash Caps. The font includes this copyright statement: Copyright (c) 2011 TypeSETit, LLC (typesetit@att.net), with Reserved Font Names \\\&quot;Bilbo\\\&quot; and \\\&quot;Bilbo Swash Caps\\\n\nMarkMaker uses semantic data from the Princeton University WordNet database http://wordnet.princeton.edu and font descriptions from Google Fonts https://www.google.com/fonts.\n\nThis design is inspired by designs that past users of MarkMaker have liked. As a result, it may be visually similar to past or future designs generated by the system. There is no guarantee that it is unique, original, or suitable in any way for use as a logo.\n\n&quot;}" fill="#000000" stroke="none" stroke-width="1" stroke-linecap="butt" stroke-linejoin="miter" stroke-miterlimit="10" stroke-dasharray="" stroke-dashoffset="0" font-family="sans-serif" font-weight="normal" font-size="12" text-anchor="start" mix-blend-mode="normal"><g data-paper-data="{&quot;elementType&quot;:&quot;logo&quot;}"><g data-paper-data="{&quot;elementType&quot;:&quot;text&quot;}"><g transform="translate(-13.61019,-100)" data-paper-data="{&quot;baseline&quot;:65.9,&quot;elementType&quot;:&quot;row&quot;}"><g transform="translate(16.11019,0)" data-paper-data="{&quot;baselineProportion&quot;:0.647984267453294,&quot;fontSize&quot;:100,&quot;baseline&quot;:65.9,&quot;elementType&quot;:&quot;word&quot;}"><path d="M44.1,70.9c-0.2,0 -0.41667,0 -0.65,0c-0.23333,0 -0.43333,0 -0.6,0c-0.16667,0 -0.38333,0 -0.65,0c-0.26667,0 -0.48333,0 -0.65,0c-0.16667,0 -0.36667,-0.01667 -0.6,-0.05c-0.23333,-0.03333 -0.41667,-0.06667 -0.55,-0.1c-0.13333,-0.03333 -0.28333,-0.08333 -0.45,-0.15c-0.16667,-0.06667 -0.3,-0.15 -0.4,-0.25c-0.1,-0.1 -0.18333,-0.21667 -0.25,-0.35c-0.06667,-0.13333 -0.1,-0.3 -0.1,-0.5c0,-0.53333 0.23333,-1.08333 0.7,-1.65c0.46667,-0.56667 0.96667,-0.85 1.5,-0.85c0.6,0 1.23333,0 1.9,0c0.93333,0 2.31667,0.01667 4.15,0.05c1.83333,0.03333 3.15,0.05 3.95,0.05c0.8,-2.26667 1.96667,-5.71667 3.5,-10.35c1.53333,-4.63333 2.7,-8.11667 3.5,-10.45c-17.06667,-5 -30.03333,-7.5 -38.9,-7.5c-1.93333,0 -3.83333,0.13333 -5.7,0.4c-1.86667,0.26667 -3.85,0.75 -5.95,1.45c-2.1,0.7 -3.8,1.76667 -5.1,3.2c-1.3,1.43333 -1.95,3.18333 -1.95,5.25c0,3.13333 1.41667,6.36667 4.25,9.7c2.83333,3.33333 5.95,6.11667 9.35,8.35c3.4,2.23333 6.51667,4.31667 9.35,6.25c2.83333,1.93333 4.25,3.2 4.25,3.8c0,0.2 -0.13333,0.3 -0.4,0.3c-1.06667,0 -3.16667,-0.83333 -6.3,-2.5c-3.06667,-1.6 -5.91667,-3.35 -8.55,-5.25c-2.63333,-1.9 -5.15,-4.08333 -7.55,-6.55c-2.4,-2.46667 -4.28333,-5.25 -5.65,-8.35c-1.36667,-3.1 -2.05,-6.31667 -2.05,-9.65c0,-7.4 5.73333,-11.1 17.2,-11.1c11.4,0 26.26667,3.2 44.6,9.6c0.06667,-0.26667 0.21667,-0.8 0.45,-1.6c0.23333,-0.8 0.45,-1.46667 0.65,-2c0.2,-0.53333 0.46667,-1.13333 0.8,-1.8c0.33333,-0.66667 0.73333,-1.16667 1.2,-1.5c0.46667,-0.33333 0.96667,-0.5 1.5,-0.5c1.26667,0 2.43333,0.66667 3.5,2c1.06667,1.33333 1.6,2.63333 1.6,3.9c0,0.66667 -0.2,1 -0.6,1c-0.46667,0 -1.06667,-0.3 -1.8,-0.9c-0.73333,-0.6 -1.16667,-0.9 -1.3,-0.9c-0.53333,0 -1.03333,0.43333 -1.5,1.3c-0.46667,0.86667 -0.76667,1.63333 -0.9,2.3c8,2.73333 16.13333,4.1 24.4,4.1c1.4,0 2.7,-0.16667 3.9,-0.5c1.2,-0.33333 2.13333,-0.66667 2.8,-1c0.66667,-0.33333 1.06667,-0.5 1.2,-0.5c0.86667,0 1.3,0.3 1.3,0.9c0,1.66667 -1.26667,2.86667 -3.8,3.6c-2.53333,0.73333 -4.86667,1.1 -7,1.1c-3.4,0 -7.41667,-0.46667 -12.05,-1.4c-4.63333,-0.93333 -8.48333,-2.1 -11.55,-3.5c-0.33333,1.06667 -1.33333,3.91667 -3,8.55c-1.66667,4.63333 -2.9,8.21667 -3.7,10.75c0.46667,0 3,0.05 7.6,0.15c4.6,0.1 7.73333,0.15 9.4,0.15c1.2,0 2.18333,0.15 2.95,0.45c0.76667,0.3 1.15,0.65 1.15,1.05c0,0.73333 -1.16667,1.1 -3.5,1.1c-1.93333,0 -5.46667,0.1 -10.6,0.3c-5.13333,0.2 -7.83333,0.3 -8.1,0.3c-1.2,4.33333 -3.03333,9.08333 -5.5,14.25c-2.46667,5.16667 -5,9.18333 -7.6,12.05c13.6,6.6 24.86667,9.9 33.8,9.9c3.4,0 6.5,-0.95 9.3,-2.85c2.8,-1.9 4.2,-4.48333 4.2,-7.75c0,-1.53333 -0.53333,-3.08333 -1.6,-4.65c-1.06667,-1.56667 -1.6,-2.55 -1.6,-2.95c0,-1.33333 0.53333,-2 1.6,-2c0.93333,0 1.85,0.86667 2.75,2.6c0.9,1.73333 1.35,3.83333 1.35,6.3c0,4.73333 -1.85,8.41667 -5.55,11.05c-3.7,2.63333 -8.01667,3.95 -12.95,3.95c-3.26667,0 -7.08333,-0.63333 -11.45,-1.9c-4.36667,-1.26667 -7.71667,-2.4 -10.05,-3.4c-2.33333,-1 -6,-2.66667 -11,-5c-0.86667,-0.4 -1.53333,-0.7 -2,-0.9c-5.86667,5.46667 -13.16667,8.2 -21.9,8.2c-3.33333,0 -6.3,-0.63333 -8.9,-1.9c-2.6,-1.26667 -3.9,-3.43333 -3.9,-6.5c0,-3.06667 1.2,-5.55 3.6,-7.45c2.4,-1.9 5.2,-2.85 8.4,-2.85c5.53333,0 13.16667,2.23333 22.9,6.7c3.26667,-4.26667 7.3,-12.5 12.1,-24.7c-0.33333,0 -1.23333,0.01667 -2.7,0.05c-1.46667,0.03333 -2.63333,0.05 -3.5,0.05 M35.9,98.2c-2.86667,-1.33333 -6.61667,-2.56667 -11.25,-3.7c-4.63333,-1.13333 -8.38333,-1.7 -11.25,-1.7c-4.46667,0 -6.7,1.36667 -6.7,4.1c0,1.66667 0.9,3.15 2.7,4.45c1.8,1.3 3.73333,2.2 5.8,2.7c2.06667,0.5 3.93333,0.75 5.6,0.75c5.66667,0 10.7,-2.2 15.1,-6.6z" data-paper-data="{&quot;elementType&quot;:&quot;letter&quot;,&quot;baseline&quot;:65.9,&quot;baselineProportion&quot;:0.862565445026178,&quot;fontSize&quot;:100}"></path><path transform="translate(-0.7,0)" d="M115.4,62.1c-4.73333,11.33333 -9.23333,26.43333 -13.5,45.3c-1.6,6.93333 -3.88333,11.85 -6.85,14.75c-2.96667,2.9 -6.08333,4.35 -9.35,4.35c-5.66667,0 -8.5,-3.06667 -8.5,-9.2c0,-1.6 0.21667,-3.06667 0.65,-4.4c0.43333,-1.33333 0.85,-2 1.25,-2c0.26667,0 0.43333,0.2 0.5,0.6l0,1c0,3.6 0.66667,6.53333 2,8.8c1.33333,2.26667 2.96667,3.4 4.9,3.4c1.53333,0 3.03333,-0.83333 4.5,-2.5c1.46667,-1.66667 2.73333,-4.2 3.8,-7.6c3.93333,-12.6 7.56667,-25.43333 10.9,-38.5c0.13333,-0.53333 0.2,-1.1 0.2,-1.7c0,-0.26667 -0.05,-0.53333 -0.15,-0.8c-0.1,-0.26667 -0.15,-0.5 -0.15,-0.7c0,-0.46667 0.06667,-0.86667 0.2,-1.2c1.06667,-4.13333 2.13333,-6.91667 3.2,-8.35c1.06667,-1.43333 2.66667,-2.15 4.8,-2.15c0.86667,0 1.4,0.3 1.6,0.9 M118.8,47c-0.8,0.46667 -1.5,1.15 -2.1,2.05c-0.6,0.9 -1.03333,1.76667 -1.3,2.6c-0.26667,0.83333 -0.63333,1.56667 -1.1,2.2c-0.46667,0.63333 -1,0.95 -1.6,0.95c-0.46667,0 -0.9,-0.51667 -1.3,-1.55c-0.4,-1.03333 -0.63333,-1.88333 -0.7,-2.55c0,-1.4 1.1,-2.83333 3.3,-4.3c2.2,-1.46667 3.93333,-2.2 5.2,-2.2c0.93333,0 1.4,0.3 1.4,0.9c0,0.6 -0.6,1.23333 -1.8,1.9z" data-paper-data="{&quot;elementType&quot;:&quot;letter&quot;,&quot;baseline&quot;:55.800000000000004,&quot;baselineProportion&quot;:0.678007290400972,&quot;fontSize&quot;:100}"></path><path transform="translate(-1.4,0)" d="M137.5,121.4c-0.6,3.4 -3.55,6.51667 -8.85,9.35c-5.3,2.83333 -10.31667,4.25 -15.05,4.25c-4.86667,0 -7.3,-1.76667 -7.3,-5.3c0,-3.53333 1.63333,-8.48333 4.9,-14.85c3.26667,-6.36667 6,-10.78333 8.2,-13.25c0.2,-0.26667 0.86667,-0.6 2,-1c-0.33333,-0.2 -0.76667,-0.45 -1.3,-0.75c-0.53333,-0.3 -0.98333,-0.53333 -1.35,-0.7c-0.36667,-0.16667 -0.68333,-0.38333 -0.95,-0.65c-0.26667,-0.26667 -0.4,-0.53333 -0.4,-0.8c0,-0.73333 0.31667,-1.41667 0.95,-2.05c0.63333,-0.63333 1.28333,-0.95 1.95,-0.95l0.4,0c4.06667,1.53333 7.9,4.9 11.5,10.1c3.6,5.2 5.4,10.06667 5.4,14.6c0,0.93333 -0.03333,1.6 -0.1,2 M144.6,70.6c0,0.6 -0.5,0.9 -1.5,0.9l-0.9,0c-0.06667,0.4 -0.21667,1.21667 -0.45,2.45c-0.23333,1.23333 -0.45,2.36667 -0.65,3.4c-0.2,1.03333 -0.36667,1.71667 -0.5,2.05c-1.66667,4.26667 -3.98333,7.68333 -6.95,10.25c-2.96667,2.56667 -6.05,3.85 -9.25,3.85c-1.86667,0 -3.21667,-0.53333 -4.05,-1.6c-0.83333,-1.06667 -1.25,-2.76667 -1.25,-5.1c0,-5.73333 1.78333,-11.26667 5.35,-16.6c3.56667,-5.33333 7.31667,-8 11.25,-8c0.33333,0 0.83333,0.06667 1.5,0.2c0,-2.4 0.86667,-3.6 2.6,-3.6c1.93333,0 2.9,1.53333 2.9,4.6c0,0.46667 -0.03333,1.26667 -0.1,2.4c-0.06667,1.13333 -0.1,1.96667 -0.1,2.5c0.06667,0 0.2,0.06667 0.4,0.2c0.2,0.13333 0.38333,0.26667 0.55,0.4c0.16667,0.13333 0.35,0.3 0.55,0.5c0.2,0.2 0.35,0.4 0.45,0.6c0.1,0.2 0.15,0.4 0.15,0.6 M132.8,122.7l0,-1.3c0,-3.53333 -0.95,-7.06667 -2.85,-10.6c-1.9,-3.53333 -4.18333,-6.46667 -6.85,-8.8c-0.13333,0.2 -0.95,1.36667 -2.45,3.5c-1.5,2.13333 -2.76667,4 -3.8,5.6c-1.03333,1.6 -2.21667,3.55 -3.55,5.85c-1.33333,2.3 -2.36667,4.43333 -3.1,6.4c-0.73333,1.96667 -1.1,3.65 -1.1,5.05c0,2.73333 1.56667,4.1 4.7,4.1c3.4,0 7.38333,-1.13333 11.95,-3.4c4.56667,-2.26667 6.91667,-4.4 7.05,-6.4 M138.5,71.1c-0.73333,-0.13333 -1.16667,-1.18333 -1.3,-3.15c-0.13333,-1.96667 -0.6,-2.95 -1.4,-2.95c-2.06667,0 -4,1.33333 -5.8,4c-1.8,2.66667 -3.2,5.3 -4.2,7.9c-1.66667,4.53333 -2.5,8.06667 -2.5,10.6c0,2.06667 0.83333,3.1 2.5,3.1c2.46667,0 5.2,-1.98333 8.2,-5.95c3,-3.96667 4.5,-8.48333 4.5,-13.55z" data-paper-data="{&quot;elementType&quot;:&quot;letter&quot;,&quot;baseline&quot;:41.2,&quot;baselineProportion&quot;:0.5406824146981627,&quot;fontSize&quot;:100}"></path><path transform="translate(-2.1,0)" d="M172.4,70.5c-0.53333,0.73333 -1.25,1.45 -2.15,2.15c-0.9,0.7 -1.58333,1.05 -2.05,1.05c-0.4,0 -0.6,-0.2 -0.6,-0.6c0,-0.26667 0.31667,-1.2 0.95,-2.8c0.63333,-1.6 0.95,-2.7 0.95,-3.3c0,-0.46667 -0.16667,-0.7 -0.5,-0.7c-2.33333,0 -5.78333,3.6 -10.35,10.8c-4.56667,7.2 -7.95,14.23333 -10.15,21.1c-0.4,0.53333 -1.03333,1.06667 -1.9,1.6c-0.86667,0.53333 -1.6,0.8 -2.2,0.8c-0.4,0 -0.7,-0.16667 -0.9,-0.5c0,-1.8 0.21667,-3.43333 0.65,-4.9c0.43333,-1.46667 0.98333,-2.33333 1.65,-2.6c1.46667,-5.53333 2.5,-9.66667 3.1,-12.4l1,-4.2c0.13333,-0.46667 0.2,-1 0.2,-1.6c0,-0.33333 -0.06667,-0.63333 -0.2,-0.9c-0.13333,-0.26667 -0.2,-0.53333 -0.2,-0.8c0,-0.4 0.06667,-0.76667 0.2,-1.1c1.06667,-4.2 2.15,-7.06667 3.25,-8.6c1.1,-1.53333 2.71667,-2.3 4.85,-2.3c0.8,0 1.26667,0.26667 1.4,0.8c-0.06667,0.2 -0.55,1.36667 -1.45,3.5c-0.9,2.13333 -1.73333,4.13333 -2.5,6c-0.76667,1.86667 -1.61667,4.23333 -2.55,7.1c-0.93333,2.86667 -1.66667,5.5 -2.2,7.9c2.2,-4.33333 5.6,-9.55 10.2,-15.65c4.6,-6.1 8.4,-9.15 11.4,-9.15c1.6,0 2.4,1 2.4,3c0,2.06667 -0.76667,4.16667 -2.3,6.3z" data-paper-data="{&quot;elementType&quot;:&quot;letter&quot;,&quot;baseline&quot;:39.300000000000004,&quot;baselineProportion&quot;:0.9849624060150377,&quot;fontSize&quot;:100}"></path><path transform="translate(-2.8,0)" d="M205.8,61.6c-0.2,0.6 -0.93333,2.6 -2.2,6c-1.26667,3.4 -2.3,6.26667 -3.1,8.6c-1.2,3.4 -2.48333,7.53333 -3.85,12.4c-1.36667,4.86667 -2.05,7.83333 -2.05,8.9c0,0.2 0.06667,0.3 0.2,0.3c0.53333,0 1.88333,-0.83333 4.05,-2.5c2.16667,-1.66667 3.65,-2.5 4.45,-2.5c0.53333,0 0.8,0.16667 0.8,0.5c0,0.46667 -0.75,1.23333 -2.25,2.3c-1.5,1.06667 -3.21667,2.18333 -5.15,3.35c-1.93333,1.16667 -3,1.81667 -3.2,1.95c-0.46667,0.4 -1.15,1.08333 -2.05,2.05c-0.9,0.96667 -1.73333,1.76667 -2.5,2.4c-0.76667,0.63333 -1.45,0.95 -2.05,0.95c-0.86667,0 -1.3,-0.36667 -1.3,-1.1c0,-0.46667 0.53333,-1.18333 1.6,-2.15c1.06667,-0.96667 1.76667,-1.81667 2.1,-2.55c1.13333,-2.73333 3.4,-10.7 6.8,-23.9c-3.13333,4.66667 -7.28333,9.88333 -12.45,15.65c-5.16667,5.76667 -9.05,8.65 -11.65,8.65c-0.93333,0 -1.4,-0.6 -1.4,-1.8c0,-1 0.36667,-2.43333 1.1,-4.3c0,-0.06667 0.8,-1.86667 2.4,-5.4c1.6,-3.53333 2.88333,-6.58333 3.85,-9.15c0.96667,-2.56667 1.45,-4.41667 1.45,-5.55c0,-0.33333 -0.06667,-0.65 -0.2,-0.95c-0.13333,-0.3 -0.2,-0.55 -0.2,-0.75c0,-0.06667 0.06667,-0.43333 0.2,-1.1c1.13333,-4.26667 2.2,-7.08333 3.2,-8.45c1,-1.36667 2.66667,-2.05 5,-2.05c0.93333,0 1.5,0.3 1.7,0.9c-8,19.66667 -12,29.96667 -12,30.9c0,0.26667 0.1,0.4 0.3,0.4c0.26667,0 1.06667,-0.53333 2.4,-1.6c6.66667,-5.13333 12.53333,-12.33333 17.6,-21.6c0.06667,-2.06667 0.7,-4.2 1.9,-6.4c1.2,-2.2 2.96667,-3.3 5.3,-3.3c0.73333,0 1.13333,0.3 1.2,0.9z" data-paper-data="{&quot;elementType&quot;:&quot;letter&quot;,&quot;baseline&quot;:39.300000000000004,&quot;baselineProportion&quot;:0.861842105263158,&quot;fontSize&quot;:100}"></path><path transform="translate(-3.5,0)" d="M219.5,98.9c-0.06667,0.33333 -0.21667,0.65 -0.45,0.95c-0.23333,0.3 -0.5,0.56667 -0.8,0.8c-0.3,0.23333 -0.63333,0.4 -1,0.5c-0.36667,0.1 -0.71667,0.15 -1.05,0.15c-1.13333,0 -1.7,-1.3 -1.7,-3.9c0,-1.13333 0.78333,-2.26667 2.35,-3.4c1.56667,-1.13333 2.78333,-1.7 3.65,-1.7c0.2,0 0.33333,0.06667 0.4,0.2c-0.13333,0.53333 -0.31667,1.3 -0.55,2.3c-0.23333,1 -0.43333,1.88333 -0.6,2.65c-0.16667,0.76667 -0.25,1.25 -0.25,1.45z" data-paper-data="{&quot;elementType&quot;:&quot;letter&quot;,&quot;baseline&quot;:7.700000000000003,&quot;baselineProportion&quot;:0.8555555555555558,&quot;fontSize&quot;:100}"></path><path transform="translate(-4.2,0)" d="M309.7,71.6c2.33333,0 3.5,0.3 3.5,0.9c0,0.66667 -1.16667,1.2 -3.5,1.6c-2.33333,0.4 -4.33333,0.6 -6,0.6c-4.66667,17.2 -7.96667,27.86667 -9.9,32c-4.93333,10.46667 -10.26667,17.93333 -16,22.4c-5.73333,4.46667 -11.43333,6.7 -17.1,6.7c-5.93333,0 -10.56667,-2.06667 -13.9,-6.2c-1.26667,-1.53333 -1.9,-3 -1.9,-4.4c0.06667,-0.66667 0.26667,-1.03333 0.6,-1.1c0.53333,0 1.16667,0.5 1.9,1.5c1.13333,1.53333 2.11667,2.73333 2.95,3.6c0.83333,0.86667 2.06667,1.73333 3.7,2.6c1.63333,0.86667 3.35,1.3 5.15,1.3c4.73333,0 9.26667,-1.63333 13.6,-4.9c4.33333,-3.26667 8.03333,-7.43333 11.1,-12.5c3.06667,-5.06667 5.63333,-10.18333 7.7,-15.35c2.06667,-5.16667 3.63333,-10.11667 4.7,-14.85c-2.8,5.4 -8.1,9.93333 -15.9,13.6c-7.8,3.66667 -15.66667,5.5 -23.6,5.5c-8.4,0 -15.06667,-2.41667 -20,-7.25c-4.93333,-4.83333 -7.4,-10.81667 -7.4,-17.95c0,-4.2 0.73333,-8.26667 2.2,-12.2c1.46667,-3.93333 3.48333,-7.48333 6.05,-10.65c2.56667,-3.16667 5.58333,-6.06667 9.05,-8.7c3.46667,-2.63333 7.18333,-4.83333 11.15,-6.6c3.96667,-1.76667 8.1,-3.15 12.4,-4.15c4.3,-1 8.55,-1.5 12.75,-1.5c0.93333,0 1.86667,0.03333 2.8,0.1c4.8,0.26667 8.71667,1 11.75,2.2c3.03333,1.2 4.95,2.43333 5.75,3.7c0.4,0.66667 0.6,1.26667 0.6,1.8c0,0.26667 -0.06667,0.55 -0.2,0.85c-0.13333,0.3 -0.28333,0.53333 -0.45,0.7c-0.16667,0.16667 -0.41667,0.41667 -0.75,0.75c-0.33333,0.33333 -0.56667,0.6 -0.7,0.8c-0.2,0.26667 -0.43333,0.61667 -0.7,1.05c-0.26667,0.43333 -0.51667,0.85 -0.75,1.25c-0.23333,0.4 -0.48333,0.78333 -0.75,1.15c-0.26667,0.36667 -0.51667,0.66667 -0.75,0.9c-0.23333,0.23333 -0.45,0.35 -0.65,0.35c-0.13333,0 -0.25,-0.03333 -0.35,-0.1c-0.1,-0.06667 -0.18333,-0.16667 -0.25,-0.3l0,-0.1c0,-0.46667 0.23333,-1.18333 0.7,-2.15c0.46667,-0.96667 0.7,-1.78333 0.7,-2.45c0,-1 -0.43333,-2.1 -1.3,-3.3c-2.06667,-2.86667 -6.36667,-4.6 -12.9,-5.2c-0.8,-0.06667 -1.66667,-0.1 -2.6,-0.1c-1.66667,0 -3.45,0.1 -5.35,0.3c-1.9,0.2 -4,0.58333 -6.3,1.15c-2.3,0.56667 -4.6,1.26667 -6.9,2.1c-2.3,0.83333 -4.65,1.93333 -7.05,3.3c-2.4,1.36667 -4.63333,2.9 -6.7,4.6c-2.06667,1.7 -4.06667,3.76667 -6,6.2c-1.93333,2.43333 -3.56667,5.05 -4.9,7.85c-2.66667,5.6 -4,11 -4,16.2c0,6.53333 2.4,11.85 7.2,15.95c4.8,4.1 10.26667,6.15 16.4,6.15c9.93333,0 18.05,-2.11667 24.35,-6.35c6.3,-4.23333 11.58333,-10.81667 15.85,-19.75c-5.66667,0.33333 -14.73333,0.5 -27.2,0.5c-1.13333,0 -2.05,-0.35 -2.75,-1.05c-0.7,-0.7 -1.05,-1.48333 -1.05,-2.35c0,-0.86667 0.68333,-1.63333 2.05,-2.3c1.36667,-0.66667 2.55,-1 3.55,-1c0.06667,0 0.13333,0 0.2,0c0.4,0 0.63333,0.13333 0.7,0.4c0,0.06667 -0.03333,0.13333 -0.1,0.2c-0.33333,0.4 -0.55,0.73333 -0.65,1c-0.1,0.26667 0.01667,0.46667 0.35,0.6c0.73333,0 2.86667,0.05 6.4,0.15c3.53333,0.1 7.71667,0.16667 12.55,0.2c4.83333,0.03333 8.81667,0.05 11.95,0.05c2.13333,0 3.76667,0 4.9,0z" data-paper-data="{&quot;elementType&quot;:&quot;letter&quot;,&quot;baseline&quot;:64.4,&quot;baselineProportion&quot;:0.6427145708582834,&quot;fontSize&quot;:100}"></path><path transform="translate(-4.9,0)" d="M348.6,61.6c-0.2,0.6 -0.93333,2.6 -2.2,6c-1.26667,3.4 -2.3,6.26667 -3.1,8.6c-1.2,3.4 -2.48333,7.53333 -3.85,12.4c-1.36667,4.86667 -2.05,7.83333 -2.05,8.9c0,0.2 0.06667,0.3 0.2,0.3c0.53333,0 1.88333,-0.83333 4.05,-2.5c2.16667,-1.66667 3.65,-2.5 4.45,-2.5c0.53333,0 0.8,0.16667 0.8,0.5c0,0.46667 -0.75,1.23333 -2.25,2.3c-1.5,1.06667 -3.21667,2.18333 -5.15,3.35c-1.93333,1.16667 -3,1.81667 -3.2,1.95c-0.46667,0.4 -1.15,1.08333 -2.05,2.05c-0.9,0.96667 -1.73333,1.76667 -2.5,2.4c-0.76667,0.63333 -1.45,0.95 -2.05,0.95c-0.86667,0 -1.3,-0.36667 -1.3,-1.1c0,-0.46667 0.53333,-1.18333 1.6,-2.15c1.06667,-0.96667 1.76667,-1.81667 2.1,-2.55c1.13333,-2.73333 3.4,-10.7 6.8,-23.9c-3.13333,4.66667 -7.28333,9.88333 -12.45,15.65c-5.16667,5.76667 -9.05,8.65 -11.65,8.65c-0.93333,0 -1.4,-0.6 -1.4,-1.8c0,-1 0.36667,-2.43333 1.1,-4.3c0,-0.06667 0.8,-1.86667 2.4,-5.4c1.6,-3.53333 2.88333,-6.58333 3.85,-9.15c0.96667,-2.56667 1.45,-4.41667 1.45,-5.55c0,-0.33333 -0.06667,-0.65 -0.2,-0.95c-0.13333,-0.3 -0.2,-0.55 -0.2,-0.75c0,-0.06667 0.06667,-0.43333 0.2,-1.1c1.13333,-4.26667 2.2,-7.08333 3.2,-8.45c1,-1.36667 2.66667,-2.05 5,-2.05c0.93333,0 1.5,0.3 1.7,0.9c-8,19.66667 -12,29.96667 -12,30.9c0,0.26667 0.1,0.4 0.3,0.4c0.26667,0 1.06667,-0.53333 2.4,-1.6c6.66667,-5.13333 12.53333,-12.33333 17.6,-21.6c0.06667,-2.06667 0.7,-4.2 1.9,-6.4c1.2,-2.2 2.96667,-3.3 5.3,-3.3c0.73333,0 1.13333,0.3 1.2,0.9z" data-paper-data="{&quot;elementType&quot;:&quot;letter&quot;,&quot;baseline&quot;:39.300000000000004,&quot;baselineProportion&quot;:0.861842105263158,&quot;fontSize&quot;:100}"></path></g></g></g></g></g></svg>